<svg xmlns="http://www.w3.org/2000/svg" viewBox="0 0 24 24" fill="none" stroke="currentColor" stroke-width="2" stroke-linecap="round" stroke-linejoin="round">
  <defs>
    <linearGradient id="brainGrad">
    <stop offset="0" stop-color="#9B5DE5"/>
    <stop offset="0.5" stop-color="#F15BB5"/>
    <stop offset="1" stop-color="#FEE440"/>
  </linearGradient>  <radialGradient id="nodeGrad" cx="0.5" cy="0.5" r="0.5">
    <stop offset="0" stop-color="#00BBF9"/>
    <stop offset="1" stop-color="#0055AA"/>
  </radialGradient>  <filter id="brainShadow" x="-50%" y="-50%" width="200%" height="200%">
    <feDropShadow dx="0" dy="1.5" stdDeviation="1.2" flood-color="#5B08A5" flood-opacity="0.5"/>
  </filter>
  </defs>
  <g>
    <path d="M9.5 4A3.5 3.5 0 0 0 6 7.5v.27a3.5 3.5 0 0 1-1.5 2.83l-.27.16a3.5 3.5 0 0 0 0 6.06l.27.16a3.5 3.5 0 0 1 1.5 2.83v.27a3.5 3.5 0 0 0 3.5 3.5h.5V4Z" fill="url(#brainGrad)" stroke="none" filter="url(#brainShadow)"/>
    <path d="M14.5 4A3.5 3.5 0 0 1 18 7.5v.27a3.5 3.5 0 0 0 1.5 2.83l.27.16a3.5 3.5 0 0 1 0 6.06l-.27.16a3.5 3.5 0 0 0-1.5 2.83v.27a3.5 3.5 0 0 1-3.5 3.5H14V4Z" fill="url(#brainGrad)" stroke="none" filter="url(#brainShadow)"/>
    <g>
    <path d="M7 8q1.5 1 1.5 3t-1.5 3" stroke="white" stroke-width="0.8"/>
    <path d="M9 10q1 1 0 3" stroke="white" stroke-width="0.8"/>
    <path d="M17 8q-1.5 1-1.5 3t1.5 3" stroke="white" stroke-width="0.8"/>
    <path d="M15 10q-1 1 0 3" stroke="white" stroke-width="0.8"/>
    <path d="M12 6v12" stroke="white" stroke-width="0.6"/>
  </g>
    <g>
    <line x1="3" y1="7" x2="6" y2="9" stroke="#00BBF9" stroke-width="1"/>
    <line x1="21" y1="7" x2="18" y2="9" stroke="#00BBF9" stroke-width="1"/>
    <line x1="3" y1="17" x2="6" y2="15" stroke="#00BBF9" stroke-width="1"/>
    <line x1="21" y1="17" x2="18" y2="15" stroke="#00BBF9" stroke-width="1"/>
    <circle cx="3" cy="7" r="1.2" fill="url(#nodeGrad)" stroke="none"/>
    <circle cx="21" cy="7" r="1.2" fill="url(#nodeGrad)" stroke="none"/>
    <circle cx="3" cy="17" r="1.2" fill="url(#nodeGrad)" stroke="none"/>
    <circle cx="21" cy="17" r="1.2" fill="url(#nodeGrad)" stroke="none"/>
  </g>
  </g>
</svg>